<svg xmlns="http://www.w3.org/2000/svg" width="900" height="420" viewBox="0 0 900 420">
<rect width="900" height="420" fill="none" />
<style>
text { font-family: Georgia, "Times New Roman", serif; fill: #4A413B; }
.fruit-title { font-size: 58px; fill: #1F130B; font-weight: 600; }
.fruit-label { font-size: 19px; font-weight: 600; }
.fruit-metric { font-size: 14px; opacity: 0.78; }
</style>
<text class="fruit-title" x="28" y="72">Fruits</text>
<g>
<title>ENTREPRENEURIAL MARKETING AND PERFORMANCE: CONTINGENT ROLE OF MARKET TURBULENCE
External citations: 26
Internal indegree: 0
External citation velocity: 8.67
Fruit score: 0.717</title>
<g transform="translate(165.0 230.0) scale(0.08558) translate(-397.295 -520.000)">
<path d="M794.49,481.43c-7.01,171.76-91.42,392.06-287.16,443.14-27.83,5.08-51.28,4.55-76.48-7.56-2.72-1.3-5.42-2.61-8.22-3.71-8.86-3.56-16.51-5.37-25.33-5.61-8.82.24-16.49,2.06-25.35,5.61-2.79,1.11-5.5,2.41-8.2,3.71-25.2,12.11-48.65,12.64-76.5,7.56-133.68-34.88-215.44-148.71-256.06-272.09C12.33,595.21,2.31,535.89.1,481.43-4.49,287.54,143.88,165.82,397.3,221.58c147.12-32.38,258.83-4.93,325.78,61.78,48.36,48.12,73.34,116.75,71.41,198.07Z" fill="#A32314" />
<path d="M483.98,260.49c-25.13,19.58-53.91,30.28-86.69,31.23-32.8-.95-61.58-11.65-86.69-31.23,0,0-18.7-24.87-6.7-32.12,8.72-5.25,54.05,4.07,78.2,9.56,10,2.27,20.37,2.27,30.36,0,24.15-5.49,69.48-14.81,78.2-9.56,12,7.25-6.7,32.12-6.7,32.12Z" fill="#D8301E" opacity="0.55" />
<path d="M415.66,165.82c2.7-98.89,75.02-193.91,262.43-144.93l17.09-7.23c33.4,151.87-177.55,253.19-279.52,152.16Z" fill="#C1C202" />
<path d="M415.66,165.82c79.39-81.67,153.26-56.19,228.9-112.37,12.2-9.02,23.32-19.98,33.53-32.56l17.09-7.23c33.4,151.87-177.55,253.19-279.52,152.16Z" fill="#7BA400" />
<path d="M518.1,214.19c-38.42,0-77.07-12.34-107.89-42.88-1.52-1.5-2.35-3.57-2.29-5.71,1.54-56.04,23.76-102.95,62.58-132.08,47.95-35.98,119.48-43.15,206.99-20.77l14.68-6.21c2.12-.89,4.52-.8,6.57.25s3.51,2.97,4,5.21c8.03,36.5,2.92,72.88-14.77,105.2-16.02,29.27-41.42,54.06-73.44,71.69-28.13,15.49-62.19,25.3-96.43,25.3ZM423.51,162.65c52.59,49.59,129.73,42.32,183.56,12.69,47.88-26.36,93.42-79.39,82.3-150.81l-8.26,3.49c-1.57.67-3.32.79-4.97.36-83.95-21.94-151.84-15.89-196.34,17.51-34.19,25.66-54.1,67.03-56.28,116.75Z" fill="#475B00" />
<path d="M410.11,160.42c79.95-81.14,153.62-55.4,231.81-110.52,1.98-1.43,4.74-.99,6.17.99,1.41,1.94.99,4.66-.9,6.11-17.46,13.36-37.23,23.72-57.76,31.3-40.2,14.79-83.12,21.6-119.76,43.79-17.99,10.5-34.03,24.03-48.47,39.11-7.29,7.32-18.26-3.16-11.09-10.78h0Z" fill="#475B00" />
<path d="M583.94,28.35c6.25,15.23-26.34,23.38-58.5,40.52-32.16,17.14-59.27,31.08-64.63,21.04-5.35-10.04,13.8-34.33,45.96-51.47,32.16-17.14,72.84-20.61,77.16-10.08Z" fill="#E6E9A4" />
<path d="M345.12,50.82c-19.73-2.19-55.84,31.98-42.53,59.19,62.54,34.83,85.81,97.2,76.23,180.98,8.34.98,17.01.9,25.88.18,22.96-60.94,25.26-199.23-59.58-240.34Z" fill="#A04618" />
<path d="M380.6,243.81c22.83,15.3,30.96-21.08,19.91-132.78,23.66,64.88,23.04,121.95,4.2,180.13-9.25,1.1-17.82.71-25.78-1.05l1.68-46.3Z" fill="#87300A" />
<path d="M345.12,50.82c35.89,20.06-19.67,77.83-42.53,59.19-15.29-23.02,20.8-60.52,42.53-59.19Z" fill="#C97B59" />
<path d="M303.26,245.46c23.17,24.05,54.78,37.76,88,38.45,33.24,0,65.1-12.92,89.88-35.13,1.84-1.65,4.66-1.49,6.31.34,1.34,1.49,1.48,3.64.51,5.27-4.76,7.97-11.23,14.91-18.49,20.77-48.55,38.56-140.88,32.39-173.3-24.43-2.55-4.54,3.5-9.04,7.09-5.28h0Z" fill="#54040F" />
</g>
<text class="fruit-label" x="216.0" y="226.0">SULAIMAN MABA 2024</text>
<text class="fruit-metric" x="216.0" y="248.0">cited_by 26; indegree 0</text>
</g>
<g>
<title>ENTREPRENEURIAL MARKETING AND BUSINESS PERFORMANCE IN SMES: THE MEDIATING ROLE OF COMPETITIVE AGGRESSIVENESS
External citations: 8
Internal indegree: 0
External citation velocity: 4.00
Fruit score: 0.555</title>
<g transform="translate(430.0 160.0) scale(0.08558) translate(-397.295 -520.000)">
<path d="M794.49,481.43c-7.01,171.76-91.42,392.06-287.16,443.14-27.83,5.08-51.28,4.55-76.48-7.56-2.72-1.3-5.42-2.61-8.22-3.71-8.86-3.56-16.51-5.37-25.33-5.61-8.82.24-16.49,2.06-25.35,5.61-2.79,1.11-5.5,2.41-8.2,3.71-25.2,12.11-48.65,12.64-76.5,7.56-133.68-34.88-215.44-148.71-256.06-272.09C12.33,595.21,2.31,535.89.1,481.43-4.49,287.54,143.88,165.82,397.3,221.58c147.12-32.38,258.83-4.93,325.78,61.78,48.36,48.12,73.34,116.75,71.41,198.07Z" fill="#E4988C" />
<path d="M483.98,260.49c-25.13,19.58-53.91,30.28-86.69,31.23-32.8-.95-61.58-11.65-86.69-31.23,0,0-18.7-24.87-6.7-32.12,8.72-5.25,54.05,4.07,78.2,9.56,10,2.27,20.37,2.27,30.36,0,24.15-5.49,69.48-14.81,78.2-9.56,12,7.25-6.7,32.12-6.7,32.12Z" fill="#D8301E" opacity="0.55" />
<path d="M415.66,165.82c2.7-98.89,75.02-193.91,262.43-144.93l17.09-7.23c33.4,151.87-177.55,253.19-279.52,152.16Z" fill="#C1C202" />
<path d="M415.66,165.82c79.39-81.67,153.26-56.19,228.9-112.37,12.2-9.02,23.32-19.98,33.53-32.56l17.09-7.23c33.4,151.87-177.55,253.19-279.52,152.16Z" fill="#7BA400" />
<path d="M518.1,214.19c-38.42,0-77.07-12.34-107.89-42.88-1.52-1.5-2.35-3.57-2.29-5.71,1.54-56.04,23.76-102.95,62.58-132.08,47.95-35.98,119.48-43.15,206.99-20.77l14.68-6.21c2.12-.89,4.52-.8,6.57.25s3.51,2.97,4,5.21c8.03,36.5,2.92,72.88-14.77,105.2-16.02,29.27-41.42,54.06-73.44,71.69-28.13,15.49-62.19,25.3-96.43,25.3ZM423.51,162.65c52.59,49.59,129.73,42.32,183.56,12.69,47.88-26.36,93.42-79.39,82.3-150.81l-8.26,3.49c-1.57.67-3.32.79-4.97.36-83.95-21.94-151.84-15.89-196.34,17.51-34.19,25.66-54.1,67.03-56.28,116.75Z" fill="#475B00" />
<path d="M410.11,160.42c79.95-81.14,153.62-55.4,231.81-110.52,1.98-1.43,4.74-.99,6.17.99,1.41,1.94.99,4.66-.9,6.11-17.46,13.36-37.23,23.72-57.76,31.3-40.2,14.79-83.12,21.6-119.76,43.79-17.99,10.5-34.03,24.03-48.47,39.11-7.29,7.32-18.26-3.16-11.09-10.78h0Z" fill="#475B00" />
<path d="M583.94,28.35c6.25,15.23-26.34,23.38-58.5,40.52-32.16,17.14-59.27,31.08-64.63,21.04-5.35-10.04,13.8-34.33,45.96-51.47,32.16-17.14,72.84-20.61,77.16-10.08Z" fill="#E6E9A4" />
<path d="M345.12,50.82c-19.73-2.19-55.84,31.98-42.53,59.19,62.54,34.83,85.81,97.2,76.23,180.98,8.34.98,17.01.9,25.88.18,22.96-60.94,25.26-199.23-59.58-240.34Z" fill="#A04618" />
<path d="M380.6,243.81c22.83,15.3,30.96-21.08,19.91-132.78,23.66,64.88,23.04,121.95,4.2,180.13-9.25,1.1-17.82.71-25.78-1.05l1.68-46.3Z" fill="#87300A" />
<path d="M345.12,50.82c35.89,20.06-19.67,77.83-42.53,59.19-15.29-23.02,20.8-60.52,42.53-59.19Z" fill="#C97B59" />
<path d="M303.26,245.46c23.17,24.05,54.78,37.76,88,38.45,33.24,0,65.1-12.92,89.88-35.13,1.84-1.65,4.66-1.49,6.31.34,1.34,1.49,1.48,3.64.51,5.27-4.76,7.97-11.23,14.91-18.49,20.77-48.55,38.56-140.88,32.39-173.3-24.43-2.55-4.54,3.5-9.04,7.09-5.28h0Z" fill="#54040F" />
</g>
<text class="fruit-label" x="481.0" y="156.0">KAKEESH DF 2025</text>
<text class="fruit-metric" x="481.0" y="178.0">cited_by 8; indegree 0</text>
</g>
<g>
<title>AN EXAMINATION OF ENTREPRENEURIAL MARKETING DIMENSIONS AND FIRM PERFORMANCE IN SMALL AND MEDIUM ENTERPRISES
External citations: 11
Internal indegree: 0
External citation velocity: 2.20
Fruit score: 0.542</title>
<g transform="translate(675.0 245.0) scale(0.05034) translate(-397.295 -520.000)">
<path d="M794.49,481.43c-7.01,171.76-91.42,392.06-287.16,443.14-27.83,5.08-51.28,4.55-76.48-7.56-2.72-1.3-5.42-2.61-8.22-3.71-8.86-3.56-16.51-5.37-25.33-5.61-8.82.24-16.49,2.06-25.35,5.61-2.79,1.11-5.5,2.41-8.2,3.71-25.2,12.11-48.65,12.64-76.5,7.56-133.68-34.88-215.44-148.71-256.06-272.09C12.33,595.21,2.31,535.89.1,481.43-4.49,287.54,143.88,165.82,397.3,221.58c147.12-32.38,258.83-4.93,325.78,61.78,48.36,48.12,73.34,116.75,71.41,198.07Z" fill="#E9A195" />
<path d="M483.98,260.49c-25.13,19.58-53.91,30.28-86.69,31.23-32.8-.95-61.58-11.65-86.69-31.23,0,0-18.7-24.87-6.7-32.12,8.72-5.25,54.05,4.07,78.2,9.56,10,2.27,20.37,2.27,30.36,0,24.15-5.49,69.48-14.81,78.2-9.56,12,7.25-6.7,32.12-6.7,32.12Z" fill="#D8301E" opacity="0.55" />
<path d="M415.66,165.82c2.7-98.89,75.02-193.91,262.43-144.93l17.09-7.23c33.4,151.87-177.55,253.19-279.52,152.16Z" fill="#C1C202" />
<path d="M415.66,165.82c79.39-81.67,153.26-56.19,228.9-112.37,12.2-9.02,23.32-19.98,33.53-32.56l17.09-7.23c33.4,151.87-177.55,253.19-279.52,152.16Z" fill="#7BA400" />
<path d="M518.1,214.19c-38.42,0-77.07-12.34-107.89-42.88-1.52-1.5-2.35-3.57-2.29-5.71,1.54-56.04,23.76-102.95,62.58-132.08,47.95-35.98,119.48-43.15,206.99-20.77l14.68-6.21c2.12-.89,4.52-.8,6.57.25s3.51,2.97,4,5.21c8.03,36.5,2.92,72.88-14.77,105.2-16.02,29.27-41.42,54.06-73.44,71.69-28.13,15.49-62.19,25.3-96.43,25.3ZM423.51,162.65c52.59,49.59,129.73,42.32,183.56,12.69,47.88-26.36,93.42-79.39,82.3-150.81l-8.26,3.49c-1.57.67-3.32.79-4.97.36-83.95-21.94-151.84-15.89-196.34,17.51-34.19,25.66-54.1,67.03-56.28,116.75Z" fill="#475B00" />
<path d="M410.11,160.42c79.95-81.14,153.62-55.4,231.81-110.52,1.98-1.43,4.74-.99,6.17.99,1.41,1.94.99,4.66-.9,6.11-17.46,13.36-37.23,23.72-57.76,31.3-40.2,14.79-83.12,21.6-119.76,43.79-17.99,10.5-34.03,24.03-48.47,39.11-7.29,7.32-18.26-3.16-11.09-10.78h0Z" fill="#475B00" />
<path d="M583.94,28.35c6.25,15.23-26.34,23.38-58.5,40.52-32.16,17.14-59.27,31.08-64.63,21.04-5.35-10.04,13.8-34.33,45.96-51.47,32.16-17.14,72.84-20.61,77.16-10.08Z" fill="#E6E9A4" />
<path d="M345.12,50.82c-19.73-2.19-55.84,31.98-42.53,59.19,62.54,34.83,85.81,97.2,76.23,180.98,8.34.98,17.01.9,25.88.18,22.96-60.94,25.26-199.23-59.58-240.34Z" fill="#A04618" />
<path d="M380.6,243.81c22.83,15.3,30.96-21.08,19.91-132.78,23.66,64.88,23.04,121.95,4.2,180.13-9.25,1.1-17.82.71-25.78-1.05l1.68-46.3Z" fill="#87300A" />
<path d="M345.12,50.82c35.89,20.06-19.67,77.83-42.53,59.19-15.29-23.02,20.8-60.52,42.53-59.19Z" fill="#C97B59" />
<path d="M303.26,245.46c23.17,24.05,54.78,37.76,88,38.45,33.24,0,65.1-12.92,89.88-35.13,1.84-1.65,4.66-1.49,6.31.34,1.34,1.49,1.48,3.64.51,5.27-4.76,7.97-11.23,14.91-18.49,20.77-48.55,38.56-140.88,32.39-173.3-24.43-2.55-4.54,3.5-9.04,7.09-5.28h0Z" fill="#54040F" />
</g>
<text class="fruit-label" x="712.0" y="241.0">HANAYSHA JR 2022</text>
<text class="fruit-metric" x="712.0" y="263.0">cited_by 11; indegree 0</text>
</g>
</svg>