<svg xmlns="http://www.w3.org/2000/svg" width="900" height="420" viewBox="0 0 900 420">
<rect width="900" height="420" fill="none" />
<style>
text { font-family: Georgia, "Times New Roman", serif; fill: #4A413B; }
.fruit-title { font-size: 58px; fill: #1F130B; font-weight: 600; }
.fruit-label { font-size: 19px; font-weight: 600; }
.fruit-metric { font-size: 14px; opacity: 0.78; }
</style>
<text class="fruit-title" x="28" y="72">Fruits</text>
<g>
<title>ENTREPRENEURIAL MARKETING AND PERFORMANCE: CONTINGENT ROLE OF MARKET TURBULENCE
External citations: 26
Internal indegree: 0
External citation velocity: 8.67
Fruit score: 0.717</title>
<path d="M 0 -0.58 C -0.28 -0.92 -0.88 -0.78 -1.02 -0.18 C -1.18 0.52 -0.58 1.04 0 0.92 C 0.58 1.04 1.18 0.52 1.02 -0.18 C 0.88 -0.78 0.28 -0.92 0 -0.58 Z" transform="translate(165.0 230.0) scale(34.00)" fill="#A32314" stroke="#A32314" stroke-width="1.5" />
<rect x="162.3" y="189.9" width="5.4" height="14.3" rx="1.7" fill="#6A3A16" transform="rotate(-18 165.0 196.0)" />
<ellipse cx="176.6" cy="194.3" rx="10.2" ry="4.8" fill="#7D932D" transform="rotate(-28 176.6 194.3)" />
<text class="fruit-label" x="216.0" y="226.0">SULAIMAN MABA 2024</text>
<text class="fruit-metric" x="216.0" y="248.0">cited_by 26; indegree 0</text>
</g>
<g>
<title>ENTREPRENEURIAL MARKETING AND BUSINESS PERFORMANCE IN SMES: THE MEDIATING ROLE OF COMPETITIVE AGGRESSIVENESS
External citations: 8
Internal indegree: 0
External citation velocity: 4.00
Fruit score: 0.555</title>
<path d="M 0 -0.58 C -0.28 -0.92 -0.88 -0.78 -1.02 -0.18 C -1.18 0.52 -0.58 1.04 0 0.92 C 0.58 1.04 1.18 0.52 1.02 -0.18 C 0.88 -0.78 0.28 -0.92 0 -0.58 Z" transform="translate(430.0 160.0) scale(34.00)" fill="#E4988C" stroke="#E4988C" stroke-width="1.5" />
<rect x="427.3" y="119.9" width="5.4" height="14.3" rx="1.7" fill="#6A3A16" transform="rotate(-18 430.0 126.0)" />
<ellipse cx="441.6" cy="124.3" rx="10.2" ry="4.8" fill="#7D932D" transform="rotate(-28 441.6 124.3)" />
<text class="fruit-label" x="481.0" y="156.0">KAKEESH DF 2025</text>
<text class="fruit-metric" x="481.0" y="178.0">cited_by 8; indegree 0</text>
</g>
<g>
<title>AN EXAMINATION OF ENTREPRENEURIAL MARKETING DIMENSIONS AND FIRM PERFORMANCE IN SMALL AND MEDIUM ENTERPRISES
External citations: 11
Internal indegree: 0
External citation velocity: 2.20
Fruit score: 0.542</title>
<path d="M 0 -0.58 C -0.28 -0.92 -0.88 -0.78 -1.02 -0.18 C -1.18 0.52 -0.58 1.04 0 0.92 C 0.58 1.04 1.18 0.52 1.02 -0.18 C 0.88 -0.78 0.28 -0.92 0 -0.58 Z" transform="translate(675.0 245.0) scale(20.00)" fill="#E9A195" stroke="#E9A195" stroke-width="1.5" />
<rect x="673.4" y="221.4" width="3.2" height="8.4" rx="1.0" fill="#6A3A16" transform="rotate(-18 675.0 225.0)" />
<ellipse cx="681.8" cy="224.0" rx="6.0" ry="2.8" fill="#7D932D" transform="rotate(-28 681.8 224.0)" />
<text class="fruit-label" x="712.0" y="241.0">HANAYSHA JR 2022</text>
<text class="fruit-metric" x="712.0" y="263.0">cited_by 11; indegree 0</text>
</g>
</svg>