<?xml version="1.0" encoding="UTF-8" standalone="no"?>
<!-- Created with Inkscape (http://www.inkscape.org/) -->

<svg
   width="21.134434mm"
   height="32.602337mm"
   viewBox="0 0 21.134434 32.602337"
   version="1.1"
   id="svg5"
   inkscape:version="1.3.2 (091e20e, 2023-11-25, custom)"
   sodipodi:docname="tos_3_visualization_final_2.svg"
   xml:space="preserve"
   inkscape:export-filename="tos_3_visualization_final_2.jpg"
   inkscape:export-xdpi="96"
   inkscape:export-ydpi="96"
   xmlns:inkscape="http://www.inkscape.org/namespaces/inkscape"
   xmlns:sodipodi="http://sodipodi.sourceforge.net/DTD/sodipodi-0.dtd"
   xmlns="http://www.w3.org/2000/svg"
   xmlns:svg="http://www.w3.org/2000/svg"><sodipodi:namedview
     id="namedview7"
     pagecolor="#ffffff"
     bordercolor="#666666"
     borderopacity="1.0"
     inkscape:pageshadow="2"
     inkscape:pageopacity="0.0"
     inkscape:pagecheckerboard="0"
     inkscape:document-units="mm"
     showgrid="false"
     fit-margin-top="0"
     fit-margin-left="0"
     fit-margin-right="0"
     fit-margin-bottom="0"
     inkscape:zoom="0.1838111"
     inkscape:cx="1218.6424"
     inkscape:cy="1245.8442"
     inkscape:window-width="958"
     inkscape:window-height="1000"
     inkscape:window-x="-7"
     inkscape:window-y="0"
     inkscape:window-maximized="0"
     inkscape:current-layer="layer1"
     inkscape:showpageshadow="2"
     inkscape:deskcolor="#d1d1d1" /><defs
     id="defs2"><style
       id="style457">
      .st0 {
        fill: #e52813;
      }

      .st0, .st1, .st2 {
        fill-rule: evenodd;
      }

      .st3 {
        fill: #f2f2f2;
      }

      .st1 {
        fill: #becc2d;
      }

      .st2 {
        fill: #7d932d;
      }

      .st4 {
        fill: url(#Degradado_sin_nombre_42);
      }
    </style><linearGradient
       id="Degradado_sin_nombre_42"
       data-name="Degradado sin nombre 42"
       x1="1067.26"
       y1="309.92001"
       x2="1067.26"
       y2="1889.59"
       gradientUnits="userSpaceOnUse"
       gradientTransform="matrix(0.39836624,0,0,0.39836624,-316.18911,-1122.5602)"><stop
         offset="0"
         stop-color="#c4ae97"
         id="stop459" /><stop
         offset="1"
         stop-color="#441a03"
         id="stop461" /></linearGradient></defs><g
     inkscape:label="Layer 1"
     inkscape:groupmode="layer"
     id="layer1"
     transform="translate(-148.10126,1029.4219)"><path
       class="st4"
       d="m 75.249543,-594.8644 c 6.660679,0 12.062525,5.40184 12.062525,12.06252 0,6.66068 -5.401846,12.06253 -12.062525,12.06253 -6.660689,0 -12.062535,-5.40185 -12.062535,-12.06253 0,-6.66068 5.401846,-12.06252 12.062535,-12.06252 z m 23.033524,14.14598 c 0,3.32238 2.692963,6.01932 6.019323,6.01932 3.32636,0 6.01931,-2.69297 6.01931,-6.01932 0,-3.32636 -2.69295,-6.01931 -6.01931,-6.01931 -3.32636,0 -6.019323,2.69295 -6.019323,6.01931 z m -31.518731,-34.8212 c 0,3.76855 3.055469,6.82004 6.820031,6.82004 3.76456,0 6.820023,-3.05547 6.820023,-6.82004 0,-3.76455 -3.055463,-6.82002 -6.820023,-6.82002 -3.764562,0 -6.820031,3.05547 -6.820031,6.82002 z m 19.810753,1.81258 c 0,6.66068 5.401847,12.06252 12.062525,12.06252 6.660696,0 12.062536,-5.40184 12.062536,-12.06252 0,-6.6607 -5.40184,-12.06254 -12.062536,-12.06254 -6.660678,0 -12.062525,5.40184 -12.062525,12.06254 z m -29.797794,-32.08841 c 0,6.66068 5.401846,12.06253 12.062529,12.06253 6.660679,0 12.062525,-5.40185 12.062525,-12.06253 0,-6.66068 -5.401846,-12.06252 -12.062525,-12.06252 -6.660683,0 -12.062529,5.40184 -12.062529,12.06252 z M 67.433592,-858.4753 c -0.772831,3.46977 1.4142,6.90767 4.88397,7.68051 3.469764,0.77282 6.907674,-1.41421 7.680502,-4.88398 0.772828,-3.46977 -1.414199,-6.90767 -4.883968,-7.6805 -3.469773,-0.77283 -6.907673,1.4142 -7.680504,4.88397 z M 49.5828,-872.689 c -0.609501,2.74076 1.119409,5.45761 3.860169,6.06711 2.74076,0.60951 5.457618,-1.1194 6.067119,-3.86016 0.609499,-2.74076 -1.119411,-5.45762 -3.86017,-6.06712 -2.740759,-0.6095 -5.457618,1.11941 -6.067118,3.86017 z m 48.058896,214.35291 c 0,3.76853 3.055474,6.82002 6.820034,6.82002 3.76456,0 6.82004,-3.05546 6.82004,-6.82002 0,-3.76457 -3.05548,-6.82004 -6.82004,-6.82004 -3.76456,0 -6.820034,3.05547 -6.820034,6.82004 z m 19.898394,11.03076 c 0,6.66067 5.40185,12.06252 12.06254,12.06252 6.66068,0 12.06253,-5.40185 12.06253,-12.06252 0,-6.66068 -5.40185,-12.06253 -12.06253,-12.06253 -6.66069,0 -12.06254,5.40185 -12.06254,12.06253 z m 2.08346,-106.46736 c 0,6.66067 5.40184,12.06252 12.06254,12.06252 6.66068,0 12.06252,-5.40185 12.06252,-12.06252 0,-6.6607 -5.40184,-12.06254 -12.06252,-12.06254 -6.6607,0 -12.06254,5.40184 -12.06254,12.06254 z m -4.01553,140.81051 c 0,6.66068 5.40184,12.06253 12.06254,12.06253 6.66067,0 12.06252,-5.40185 12.06252,-12.06253 0,-6.66069 -5.40185,-12.06254 -12.06252,-12.06254 -6.6607,0 -12.06254,5.40185 -12.06254,12.06254 z m 4.54137,21.85835 c 0,2.07548 1.68509,3.76058 3.76058,3.76058 2.07549,0 3.76059,-1.6851 3.76059,-3.76058 0,-2.07548 -1.6851,-3.76057 -3.76059,-3.76057 -2.07549,0 -3.76058,1.68509 -3.76058,3.76057 z m -46.489335,52.24574 c 0,10.38938 8.421463,18.81084 18.81085,18.81084 10.389405,0 18.810865,-8.42146 18.810865,-18.81084 0,-10.38939 -8.42146,-18.81086 -18.810865,-18.81086 -10.389387,0 -18.81085,8.42147 -18.81085,18.81086 z m 44.501495,-17.38471 c 0,9.83965 7.97529,17.81494 17.81494,17.81494 9.83965,0 17.81494,-7.97529 17.81494,-17.81494 0,-9.83965 -7.97529,-17.81493 -17.81494,-17.81493 -9.83965,0 -17.81494,7.97528 -17.81494,17.81493 z m -86.768152,2.70889 c 0,9.83965 7.975291,17.81495 17.814939,17.81495 9.839645,0 17.814937,-7.9753 17.814937,-17.81495 0,-9.83964 -7.975292,-17.81494 -17.814937,-17.81494 -9.839648,0 -17.814939,7.9753 -17.814939,17.81494 z m -22.8941082,23.00963 c 0,6.58499 5.3381082,11.91912 11.9191172,11.91912 6.581011,0 11.919119,-5.3381 11.919119,-11.91912 0,-6.581 -5.338108,-11.91911 -11.919119,-11.91911 -6.581009,0 -11.9191172,5.33811 -11.9191172,11.91911 z m 52.3692262,24.98554 c 0,6.66068 5.401847,12.06252 12.06253,12.06252 6.660677,0 12.062523,-5.40184 12.062523,-12.06252 0,-6.66069 -5.401846,-12.06254 -12.062523,-12.06254 -6.660683,0 -12.06253,5.40185 -12.06253,12.06254 z m 92.444874,-24.12506 c 0,6.66067 5.40185,12.06252 12.06253,12.06252 6.66068,0 12.06252,-5.40185 12.06252,-12.06252 0,-6.66068 -5.40184,-12.06253 -12.06252,-12.06253 -6.66068,0 -12.06253,5.40185 -12.06253,12.06253 z m 34.98054,16.04619 c 0,4.22268 3.42196,7.64863 7.64863,7.64863 4.22667,0 7.64863,-3.42196 7.64863,-7.64863 0,-4.22666 -3.42196,-7.64863 -7.64863,-7.64863 -4.22667,0 -7.64863,3.42197 -7.64863,7.64863 z m 34.86501,5.34608 c 0,3.11123 2.52165,5.63688 5.63687,5.63688 3.11524,0 5.63689,-2.52166 5.63689,-5.63688 0,-3.11524 -2.52165,-5.63689 -5.63689,-5.63689 -3.11522,0 -5.63687,2.52165 -5.63687,5.63689 z m 34.41485,-0.81666 c 0,2.66109 2.15916,4.82024 4.82024,4.82024 2.66109,0 4.82023,-2.15915 4.82023,-4.82024 0,-2.66109 -2.15914,-4.82023 -4.82023,-4.82023 -2.66108,0 -4.82024,2.15914 -4.82024,4.82023 z m -273.107935,-7.12279 c 0,3.99961 3.242701,7.24629 7.2462823,7.24629 4.00358,0 7.2462807,-3.24271 7.2462807,-7.24629 0,-4.00357 -3.2427007,-7.24628 -7.2462807,-7.24628 -4.0035813,0 -7.2462823,3.24271 -7.2462823,7.24628 z m 62.232774,68.13259 c 0,3.21083 2.601332,5.81216 5.812162,5.81216 3.210833,0 5.812164,-2.60133 5.812164,-5.81216 0,-3.21083 -2.601331,-5.81217 -5.812164,-5.81217 -3.21083,0 -5.812162,2.60134 -5.812162,5.81217 z m 4.03545,-25.24845 c 0,4.39397 3.561394,7.95935 7.959358,7.95935 4.397963,0 7.959357,-3.56139 7.959357,-7.95935 0,-4.39797 -3.561394,-7.95937 -7.959357,-7.95937 -4.397964,0 -7.959358,3.5614 -7.959358,7.95937 z m -92.253654,-37.74919 c 0,2.83636 2.298573,5.13494 5.13494,5.13494 2.836369,0 5.134941,-2.29858 5.134941,-5.13494 0,-2.83637 -2.298572,-5.13495 -5.134941,-5.13495 -2.836367,0 -5.13494,2.29858 -5.13494,5.13495 z M 69.317864,-678.50936 c 0,5.64484 4.577229,10.22207 10.22208,10.22207 5.644841,0 10.22208,-4.57723 10.22208,-10.22207 0,-5.64485 -4.577239,-10.22208 -10.22208,-10.22208 -5.644851,0 -10.22208,4.57723 -10.22208,10.22208 z M 26.401869,-884.24959 c -0.40235,1.81256 0.736977,3.60521 2.549543,4.00756 1.812566,0.40235 3.605215,-0.73697 4.007566,-2.54954 0.402349,-1.81257 -0.736979,-3.60522 -2.549545,-4.00757 -1.812566,-0.40235 -3.605215,0.73698 -4.007564,2.54955 z m -29.8973866,-9.21421 c -1.0038829,4.50552 1.8364682,8.9712 6.3419911,9.9711 4.5055215,1.00389 8.9712065,-1.83646 9.9711055,-6.34199 1.003883,-4.50552 -1.836468,-8.9712 -6.3419892,-9.9711 -4.505523,-1.00389 -8.9712084,1.83646 -9.9711074,6.34199 z m -28.5509084,-3.15506 c -1.003883,4.50552 1.836469,8.9712 6.34199,9.9711 4.505523,0.9999 8.971208,-1.83646 9.971107,-6.34199 1.003883,-4.50552 -1.836468,-8.9712 -6.341989,-9.9711 -4.505523,-1.00389 -8.971209,1.83646 -9.971108,6.34199 z m -29.367559,0.50194 c -1.003883,4.50552 1.836469,8.97121 6.34199,9.9711 4.505523,1.00389 8.971208,-1.83646 9.971107,-6.34199 1.003883,-4.50552 -1.836468,-8.9712 -6.341991,-9.9711 -4.505521,-1.00389 -8.971207,1.83647 -9.971106,6.34199 z m 213.659745,130.28169 c 0,3.88806 3.15109,7.03516 7.03515,7.03516 3.88407,0 7.03516,-3.15109 7.03516,-7.03516 0,-3.88406 -3.15109,-7.03515 -7.03516,-7.03515 -3.88406,0 -7.03515,3.15109 -7.03515,7.03515 z m 29.36358,-4.74852 c 0,2.80847 2.27866,5.08713 5.08714,5.08713 2.80848,0 5.08714,-2.27866 5.08714,-5.08713 0,-2.80848 -2.27866,-5.08714 -5.08714,-5.08714 -2.80848,0 -5.08714,2.27866 -5.08714,5.08714 z m -84.298282,93.27347 c 0,3.19091 2.585404,5.77631 5.776312,5.77631 3.19091,0 5.77631,-2.5854 5.77631,-5.77631 0,-3.19091 -2.5854,-5.77632 -5.77631,-5.77632 -3.190908,0 -5.776312,2.58541 -5.776312,5.77632 z m -7.939445,41.33049 c 0,3.19093 2.585403,5.77631 5.776313,5.77631 3.190925,0 5.776314,-2.58538 5.776314,-5.77631 0,-3.19091 -2.585389,-5.77631 -5.776314,-5.77631 -3.19091,0 -5.776313,2.5854 -5.776313,5.77631 z m 4.872028,-66.75423 c 0,5.64485 4.577224,10.22208 10.222079,10.22208 5.64484,0 10.22208,-4.57723 10.22208,-10.22208 0,-5.64484 -4.57724,-10.22207 -10.22208,-10.22207 -5.644855,0 -10.222079,4.57723 -10.222079,10.22207 z m -16.962437,-11.83147 c 0,3.19091 2.585403,5.77631 5.776313,5.77631 3.190909,0 5.776313,-2.5854 5.776313,-5.77631 0,-3.19091 -2.585404,-5.77631 -5.776313,-5.77631 -3.19091,0 -5.776313,2.5854 -5.776313,5.77631 z m 5.489489,-29.37951 c 0.139422,3.43789 3.039533,6.11094 6.477428,5.9715 3.437909,-0.13942 6.11094,-3.03953 5.971518,-6.47742 -0.139422,-3.43791 -3.039533,-6.11094 -6.477442,-5.97152 -3.437895,0.13942 -6.110941,3.03953 -5.971504,6.47744 z m 21.695027,17.1417 c 0,5.64484 4.57723,10.22208 10.22208,10.22208 5.64484,0 10.22207,-4.57724 10.22207,-10.22208 0,-5.64486 -4.57723,-10.22208 -10.22207,-10.22208 -5.64485,0 -10.22208,4.57722 -10.22208,10.22208 z m -2.01175,-37.43846 c 0,2.95588 2.39816,5.35404 5.35404,5.35404 2.95588,0 5.35404,-2.39816 5.35404,-5.35404 0,-2.95588 -2.39816,-5.35404 -5.35404,-5.35404 -2.95588,0 -5.35404,2.39816 -5.35404,5.35404 z m -23.838231,-18.33282 c 0,5.64485 4.577225,10.22208 10.222066,10.22208 5.644856,0 10.22208,-4.57723 10.22208,-10.22208 0,-5.64484 -4.577224,-10.22208 -10.22208,-10.22208 -5.644841,0 -10.222066,4.57724 -10.222066,10.22208 z m 21.734851,-19.42433 c 0,4.1191 3.33831,7.45741 7.45742,7.45741 4.1191,0 7.45741,-3.33831 7.45741,-7.45741 0,-4.11911 -3.33831,-7.45742 -7.45741,-7.45742 -4.11911,0 -7.45742,3.33831 -7.45742,7.45742 z m 105.17665,29.27991 c 0,2.38622 1.93607,4.32227 4.32228,4.32227 2.38622,0 4.32227,-1.93605 4.32227,-4.32227 0,-2.38621 -1.93605,-4.32226 -4.32227,-4.32226 -2.38621,0 -4.32228,1.93605 -4.32228,4.32226 z m 82.43792,260.64705 c 0,1.89224 1.5337,3.42595 3.42594,3.42595 1.89224,0 3.42596,-1.53371 3.42596,-3.42595 0,-1.89224 -1.53372,-3.42596 -3.42596,-3.42596 -1.89224,0 -3.42594,1.53372 -3.42594,3.42596 z m -243.867864,88.27397 c 0,2.82044 2.286624,5.11105 5.111041,5.11105 2.824415,0 5.111038,-2.28662 5.111038,-5.11105 0,-2.8244 -2.286623,-5.11103 -5.111038,-5.11103 -2.824417,0 -5.111041,2.28663 -5.111041,5.11103 z m -106.79402,-89.81963 c 0,2.41012 1.951995,4.36212 4.36211,4.36212 2.410116,0 4.36211,-1.952 4.36211,-4.36212 0,-2.41011 -1.951994,-4.36211 -4.36211,-4.36211 -2.410115,0 -4.36211,1.952 -4.36211,4.36211 z m 372.416654,-1.30665 c 0,5.64486 4.57723,10.22208 10.22209,10.22208 5.64485,0 10.22208,-4.57722 10.22208,-10.22208 0,-5.64484 -4.57723,-10.22206 -10.22208,-10.22206 -5.64486,0 -10.22209,4.57722 -10.22209,10.22206 z M 41.324669,-404.32981 c 0,2.45792 1.99183,4.44974 4.44975,4.44974 2.457919,0 4.449751,-1.99182 4.449751,-4.44974 0,-2.45793 -1.991832,-4.44976 -4.449751,-4.44976 -2.45792,0 -4.44975,1.99183 -4.44975,4.44976 z M -126.21622,-522.01118 c -3.43392,4.70868 -2.39817,11.30961 2.31052,14.74353 4.70869,3.43391 11.30962,2.39817 14.74354,-2.31053 3.43391,-4.70868 2.39816,-11.30962 -2.31053,-14.74354 -4.70869,-3.4339 -11.30961,-2.39816 -14.74353,2.31054 z m 26.491354,7.67651 c 0,8.01911 6.497353,14.51646 14.516465,14.51646 8.019113,0 14.516466,-6.49735 14.516466,-14.51646 0,-8.01911 -6.497353,-14.51647 -14.516466,-14.51647 -8.019112,0 -14.516465,6.49736 -14.516465,14.51647 z m 132.966683,124.13092 c 0,2.23085 1.808583,4.04341 4.043418,4.04341 2.234834,0 4.043416,-1.80857 4.043416,-4.04341 0,-2.23484 -1.808582,-4.04342 -4.043416,-4.04342 -2.234835,0 -4.043418,1.80858 -4.043418,4.04342 z M -138.45802,-542.07689 c -2.36629,3.24668 -1.65322,7.79205 1.59347,10.15833 3.24668,2.36631 7.79204,1.65322 10.15834,-1.59346 2.36629,-3.24669 1.65322,-7.79204 -1.59347,-10.15834 -3.24668,-2.36629 -7.79204,-1.65322 -10.15834,1.59347 z m 471.66564,46.06707 c 0,3.02757 2.45393,5.48152 5.48151,5.48152 3.02759,0 5.48152,-2.45395 5.48152,-5.48152 0,-3.02758 -2.45393,-5.48153 -5.48152,-5.48153 -3.02758,0 -5.48151,2.45395 -5.48151,5.48153 z m 5.08315,-37.70138 c 0,4.01554 3.25464,7.27018 7.27017,7.27018 4.01553,0 7.27019,-3.25464 7.27019,-7.27018 0,-4.01553 -3.25466,-7.27019 -7.27019,-7.27019 -4.01553,0 -7.27017,3.25466 -7.27017,7.27019 z M 22.318615,-387.33552 c 0,1.57753 1.278755,2.8563 2.856285,2.8563 1.577531,0 2.856287,-1.27877 2.856287,-2.8563 0,-1.57753 -1.278756,-2.85628 -2.856287,-2.85628 -1.57753,0 -2.856285,1.27875 -2.856285,2.85628 z M -147.8993,-518.11914 c -1.64127,2.25076 -1.14729,5.40582 1.10348,7.0471 2.25077,1.64126 5.40583,1.14729 7.0471,-1.10348 1.64127,-2.25078 1.14729,-5.40584 -1.10348,-7.0471 -2.25077,-1.64127 -5.40583,-1.1473 -7.0471,1.10348 z m 385.80576,-263.48741 c 0,3.06345 2.48581,5.54925 5.54924,5.54925 3.06344,0 5.54924,-2.4858 5.54924,-5.54925 0,-3.06344 -2.4858,-5.54925 -5.54924,-5.54925 -3.06343,0 -5.54924,2.48581 -5.54924,5.54925 z M -86.192365,-894.02152 c -0.713076,3.20685 1.306641,6.38183 4.509506,7.09491 3.202864,0.71307 6.381827,-1.30664 7.094902,-4.50951 0.713076,-3.20685 -1.306641,-6.38183 -4.509505,-7.0949 -3.206849,-0.71308 -6.381828,1.30664 -7.094903,4.5095 z m -19.786855,2.00379 c -0.42226,1.89622 0.77283,3.77651 2.66906,4.19878 1.89622,0.42226 3.77651,-0.77283 4.198777,-2.66906 0.42227,-1.89622 -0.772829,-3.77651 -2.669057,-4.19878 -1.89622,-0.42227 -3.77651,0.77283 -4.19878,2.66906 z m -17.13771,2.83636 c -0.25496,1.15128 0.47007,2.29061 1.62135,2.54955 1.15128,0.25894 2.2906,-0.47007 2.54954,-1.62135 0.25496,-1.15128 -0.47007,-2.29061 -1.62135,-2.54955 -1.15128,-0.25893 -2.2906,0.47008 -2.54954,1.62135 z m -14.43281,-3.90399 c -0.18723,0.83259 0.33861,1.66119 1.1712,1.84444 0.83258,0.18723 1.66118,-0.33861 1.84443,-1.1712 0.18325,-0.83258 -0.33861,-1.66118 -1.1712,-1.84443 -0.83258,-0.18723 -1.66118,0.33861 -1.84443,1.17119 z m 119.023864,-25.48348 c -0.713075,3.20685 1.306641,6.38182 4.509506,7.0949 3.206848,0.71307 6.3818269,-1.30664 7.0949022,-4.50951 0.7130768,-3.20684 -1.3066408,-6.38182 -4.5095052,-7.0949 -3.206849,-0.71308 -6.381827,1.30664 -7.094903,4.50951 z m 99.838541,100.3604 c 0,3.44189 2.792549,6.23443 6.234433,6.23443 3.441884,0 6.234433,-2.79254 6.234433,-6.23443 0,-3.44188 -2.792549,-6.23443 -6.234433,-6.23443 -3.441884,0 -6.234433,2.79255 -6.234433,6.23443 z m 17.428522,-17.38868 c 0,4.01553 3.254663,7.27018 7.270193,7.27018 4.01553,0 7.27019,-3.25465 7.27019,-7.27018 0,-4.01553 -3.25466,-7.27019 -7.27019,-7.27019 -4.01553,0 -7.270193,3.25466 -7.270193,7.27019 z m -13.082338,-32.78156 c 0,2.26272 1.83647,4.09919 4.099185,4.09919 2.262716,0 4.099185,-1.83647 4.099185,-4.09919 0,-2.26272 -1.836469,-4.09919 -4.099185,-4.09919 -2.262715,0 -4.099185,1.83647 -4.099185,4.09919 z m 13.082338,-20.51188 c 0,3.15905 2.561513,5.72054 5.720543,5.72054 3.15905,0 5.72055,-2.56149 5.72055,-5.72054 0,-3.15904 -2.5615,-5.72054 -5.72055,-5.72054 -3.15903,0 -5.720543,2.5615 -5.720543,5.72054 z m 15.572143,-21.58348 c 0,4.01553 3.25465,7.27018 7.27018,7.27018 4.01553,0 7.27019,-3.25465 7.27019,-7.27018 0,-4.01553 -3.25466,-7.27019 -7.27019,-7.27019 -4.01553,0 -7.27018,3.25466 -7.27018,7.27019 z m 16.09399,-17.19747 c 0,4.01553 3.25466,7.27018 7.27019,7.27018 4.01553,0 7.27019,-3.25465 7.27019,-7.27018 0,-4.01553 -3.25466,-7.27019 -7.27019,-7.27019 -4.01553,0 -7.27019,3.25466 -7.27019,7.27019 z m -48.684324,21.47592 c 0,4.01553 3.254643,7.27019 7.270175,7.27019 4.015532,0 7.27019,-3.25466 7.27019,-7.27019 0,-4.01553 -3.254658,-7.27018 -7.27019,-7.27018 -4.015532,0 -7.270175,3.25465 -7.270175,7.27018 z M 59.964225,-921.6283 c 0,2.67703 2.171096,4.84812 4.848117,4.84812 2.677021,0 4.848117,-2.17109 4.848117,-4.84812 0,-2.67702 -2.171096,-4.84811 -4.848117,-4.84811 -2.677021,0 -4.848117,2.17109 -4.848117,4.84811 z m -18.627606,-16.43659 c 0,4.01553 3.254653,7.27019 7.270184,7.27019 4.015532,0 7.270185,-3.25466 7.270185,-7.27019 0,-4.01553 -3.254653,-7.27018 -7.270185,-7.27018 -4.015531,0 -7.270184,3.25465 -7.270184,7.27018 z m 48.556862,3.12319 c 0,2.98377 2.418082,5.40185 5.401847,5.40185 2.983764,0 5.401842,-2.41808 5.401842,-5.40185 0,-2.98376 -2.418078,-5.40184 -5.401842,-5.40184 -2.983765,0 -5.401847,2.41808 -5.401847,5.40184 z m -1.868344,-28.19237 c 0,4.01553 3.254659,7.27018 7.270191,7.27018 4.015531,0 7.270172,-3.25465 7.270172,-7.27018 0,-4.01554 -3.254641,-7.27019 -7.270172,-7.27019 -4.015532,0 -7.270191,3.25465 -7.270191,7.27019 z m 1.051687,-28.69433 c 0,4.01554 3.254659,7.27019 7.270191,7.27019 4.015535,0 7.270175,-3.25465 7.270175,-7.27019 0,-4.01553 -3.25464,-7.27018 -7.270175,-7.27018 -4.015532,0 -7.270191,3.25465 -7.270191,7.27018 z m 10.696145,133.51245 c 0,4.01553 3.254641,7.27018 7.270171,7.27018 4.01554,0 7.27019,-3.25465 7.27019,-7.27018 0,-4.01553 -3.25465,-7.27018 -7.27019,-7.27018 -4.01553,0 -7.270171,3.25465 -7.270171,7.27018 z m -15.524344,14.9706 c 0,1.82054 1.477948,3.29848 3.298473,3.29848 1.82054,0 3.298472,-1.47794 3.298472,-3.29848 0,-1.82053 -1.477932,-3.29847 -3.298472,-3.29847 -1.820525,0 -3.298473,1.47794 -3.298473,3.29847 z m -114.546223,-95.12587 c -0.286823,1.29071 0.525844,2.56946 1.816551,2.85629 1.290706,0.28682 2.569461,-0.52585 2.856285,-1.81656 0.286823,-1.2907 -0.525844,-2.56946 -1.81655,-2.85628 -1.290707,-0.28682 -2.569462,0.52584 -2.856286,1.81655 z M 215.47047,-788.0322 c 0,5.40584 4.38203,9.79185 9.79184,9.79185 5.40981,0 9.79185,-4.38204 9.79185,-9.79185 0,-5.40981 -4.38204,-9.79184 -9.79185,-9.79184 -5.40981,0 -9.79184,4.38203 -9.79184,9.79184 z m 38.29892,-13.86314 c 0,2.25077 1.82453,4.0713 4.07132,4.0713 2.24679,0 4.0713,-1.82451 4.0713,-4.0713 0,-2.24678 -1.82451,-4.0713 -4.0713,-4.0713 -2.24679,0 -4.07132,1.82452 -4.07132,4.0713 z m 12.91106,-8.16651 c 0,1.38233 1.12339,2.50573 2.50573,2.50573 1.38232,0 2.50572,-1.1234 2.50572,-2.50573 0,-1.38233 -1.1234,-2.50572 -2.50572,-2.50572 -1.38234,0 -2.50573,1.12339 -2.50573,2.50572 z m -6.20256,34.77339 c 0,2.30255 1.86436,4.16691 4.16691,4.16691 2.30256,0 4.16691,-1.86436 4.16691,-4.16691 0,-2.30256 -1.86435,-4.16691 -4.16691,-4.16691 -2.30255,0 -4.16691,1.86435 -4.16691,4.16691 z m 20.28082,5.42973 c 0,2.06353 1.67313,3.73667 3.73668,3.73667 2.06354,0 3.73668,-1.67314 3.73668,-3.73667 0,-2.06354 -1.67314,-3.73667 -3.73668,-3.73667 -2.06355,0 -3.73668,1.67313 -3.73668,3.73667 z m 17.68348,4.36211 c 0,1.65721 1.34249,3.00369 3.00369,3.00369 1.66118,0 3.00367,-1.3425 3.00367,-3.00369 0,-1.66118 -1.34249,-3.00368 -3.00367,-3.00368 -1.6612,0 -3.00369,1.3425 -3.00369,3.00368 z m 13.02657,5.1947 c 0,1.32257 1.07161,2.39418 2.39419,2.39418 1.32258,0 2.39417,-1.07161 2.39417,-2.39418 0,-1.32258 -1.07159,-2.39418 -2.39417,-2.39418 -1.32258,0 -2.39419,1.0716 -2.39419,2.39418 z m 11.34946,-5.1947 c 0,1.07161 0.86843,1.93607 1.93606,1.93607 1.06762,0 1.93606,-0.86845 1.93606,-1.93607 0,-1.06761 -0.86844,-1.93605 -1.93606,-1.93605 -1.06763,0 -1.93606,0.86844 -1.93606,1.93605 z M 43.384221,-383.79005 c 0,2.04362 1.657204,3.70081 3.700822,3.70081 2.04362,0 3.700824,-1.65719 3.700824,-3.70081 0,-2.04363 -1.657204,-3.70082 -3.700824,-3.70082 -2.043618,0 -3.700822,1.65719 -3.700822,3.70082 z m -195.685461,-164.2464 c -1.3425,1.84044 -0.93616,4.42585 0.90429,5.76835 1.84045,1.34248 4.42585,0.93616 5.76834,-0.9043 1.3425,-1.84045 0.93616,-4.42585 -0.90429,-5.76835 -1.84045,-1.34249 -4.42585,-0.93616 -5.76834,0.9043 z m 505.13237,60.89427 c 0,1.5098 1.22299,2.7288 2.72882,2.7288 1.50581,0 2.7288,-1.22299 2.7288,-2.7288 0,-1.50584 -1.22299,-2.72882 -2.7288,-2.72882 -1.50583,0 -2.72882,1.22298 -2.72882,2.72882 z m 11.01882,-42.86821 c 0,2.2189 1.80061,4.01952 4.01951,4.01952 2.2189,0 4.01952,-1.80062 4.01952,-4.01952 0,-2.21888 -1.80062,-4.0195 -4.01952,-4.0195 -2.2189,0 -4.01951,1.80062 -4.01951,4.0195 z m -523.76397,16.97838 c -1.07957,1.48193 -0.75291,3.5574 0.72901,4.63699 1.48192,1.07957 3.55741,0.75291 4.63698,-0.72902 1.07957,-1.48192 0.75291,-3.55741 -0.72901,-4.63698 -1.48192,-1.07957 -3.55741,-0.75291 -4.63698,0.72901 z m 3.68489,-44.07524 c -0.74097,1.01982 -0.51788,2.44597 0.50194,3.18692 1.01982,0.74097 2.44597,0.51788 3.18693,-0.50193 0.74096,-1.01983 0.51787,-2.44597 -0.50194,-3.18694 -1.01982,-0.74095 -2.44597,-0.51787 -3.18693,0.50195 z m 535.51976,19.02199 c 0,1.30663 1.05965,2.3663 2.36628,2.3663 1.30664,0 2.36629,-1.05967 2.36629,-2.3663 0,-1.30664 -1.05965,-2.36629 -2.36629,-2.36629 -1.30663,0 -2.36628,1.05965 -2.36628,2.36629 z M 50.18035,-373.94642 c 0,2.28263 1.852402,4.13503 4.135041,4.13503 2.282638,0 4.135042,-1.8524 4.135042,-4.13503 0,-2.28264 -1.852404,-4.13505 -4.135042,-4.13505 -2.282639,0 -4.135041,1.85241 -4.135041,4.13505 z m -37.275129,-19.66335 c 0,1.19509 0.968029,2.16311 2.163128,2.16311 1.195099,0 2.163129,-0.96802 2.163129,-2.16311 0,-1.1951 -0.96803,-2.16314 -2.163129,-2.16314 -1.195099,0 -2.163128,0.96804 -2.163128,2.16314 z M -165.67041,-503.11668 c -0.69316,0.9521 -0.48203,2.28265 0.46609,2.9758 0.95209,0.69316 2.28263,0.48203 2.97579,-0.46609 0.69316,-0.95209 0.48202,-2.28263 -0.46609,-2.9758 -0.95209,-0.69315 -2.28264,-0.48201 -2.97579,0.46609 z"
       id="path468"
       style="fill:url(#Degradado_sin_nombre_42);stroke-width:0.398366"
       inkscape:export-filename="/Users/sebastianrobledo/Downloads/tos_3_visualization.png"
       inkscape:export-xdpi="200"
       inkscape:export-ydpi="200" /><path
       class="st1"
       d="m 160.32463,-1020.443 c 0.0199,0.1434 0.0279,0.2868 0.0199,0.4342 0,0.3705 -0.10358,0.8485 -0.48999,0.9521 -0.1713,0.052 -0.30674,0.024 -0.43421,-0.1195 -0.24301,-0.2789 -0.13551,-0.6534 -0.0477,-0.984 -0.0239,0.084 0.016,-0.084 0.016,-0.076 0.008,-0.052 0.016,-0.1036 0.0239,-0.1514 0.008,-0.072 0.0279,-0.1354 0.0438,-0.2031 -0.016,0.068 0.008,-0.052 0.008,-0.06 0.0358,-0.4223 0.59357,-0.4501 0.74097,-0.1 0.008,0.01 0.0637,0.1275 0.016,0.052 0.0518,0.076 0.0915,0.1713 0.1075,0.2629 v 0 z m -2.45393,0.8325 c 0.1673,0.5259 0.38243,1.4342 -0.2191,1.7409 -0.13144,0.068 -0.3426,0.016 -0.41431,-0.1195 -0.0757,-0.1115 -0.0995,-0.2032 -0.0995,-0.3227 -0.016,-0.1713 0.0199,-0.3227 0.008,-0.47 -0.016,-0.1952 -0.0557,-0.3028 -0.11549,-0.4741 -0.0796,-0.247 0.008,-0.5179 0.24699,-0.6175 0.2191,-0.096 0.52185,0.016 0.59357,0.263 z m 5.60501,-6.2583 c -7.86773,5.7524 -20.53577,15.0105 -13.13812,27.97329 0.0995,-0.31471 0.17926,-0.63739 0.23503,-0.96803 0.2191,-1.20306 0.3665,-2.43796 0.66926,-3.62516 0.56169,-2.2507 1.85639,-4.0952 3.31839,-5.7922 0.0956,-0.3984 0.28285,-0.6613 0.51389,-1.0517 0.37447,-0.6294 0.6334,-1.3345 0.86047,-2.0317 0.37846,-1.1473 0.52187,-2.3623 0.96406,-3.4897 0.0797,-0.2031 0.34259,-0.1434 0.38243,0.052 0.23503,1.1951 0.12753,2.446 -0.17131,3.6252 0.83658,-0.9601 1.6612,-1.9441 2.44598,-2.9559 1.31063,-1.6891 2.85628,-3.5415 3.56139,-5.621 0.0358,-0.1035 0.1952,-0.084 0.20317,0.024 0.15536,1.9122 -0.82063,3.6013 -1.77274,5.1669 -1.19111,1.9639 -2.64515,3.8163 -4.12707,5.5293 -1.43412,1.6731 -2.87222,3.2945 -3.79244,5.2664 0.243,-0.239 0.486,-0.4781 0.73299,-0.6972 1.84443,-1.701 3.91992,-3.2466 5.8759,-4.8003 0.1952,-0.1633 0.41031,0.1 0.29081,0.2988 -1.13933,1.8086 -2.89612,3.0913 -4.44976,4.5015 -1.43013,1.2828 -2.48978,2.6571 -3.39805,4.2387 -0.13943,1.12335 -0.25098,2.36227 -0.62145,3.40599 20.76284,-3.35819 17.62371,-25.23649 15.95456,-32.60229 -1.13137,1.0716 -2.71686,2.2269 -4.53739,3.5574 v 0 z m -9.42933,11.5686 c 0.0479,0.1 0.0637,0.2191 0.0796,0.3306 0.008,0.06 0.0239,0.1195 0.0199,0.1793 -0.008,0.052 -0.0279,0.092 -0.0479,0.1354 0,0 -0.008,0.01 -0.008,0.016 -0.0399,0.1115 -0.13943,0.1513 -0.23503,0.1434 -0.13145,-0.01 -0.27487,-0.076 -0.31471,-0.2112 -0.0239,-0.08 -0.0557,-0.2231 -0.0717,-0.247 -0.11548,-0.1513 -0.0917,-0.3824 0.0557,-0.5019 0.1952,-0.1514 0.42227,-0.052 0.52983,0.1554 v 0 z m 9.85159,7.3578 c 0.16333,-0.1195 0.35057,-0.1195 0.50991,0 0.32667,0.2231 0.32667,0.7569 0.24301,1.1035 -0.10358,0.4182 -0.29081,0.7409 -0.57763,1.0357 -0.47008,0.5099 -1.19908,-0.044 -0.84455,-0.6653 0.12347,-0.2111 0.20318,-0.4501 0.28285,-0.6812 0.10359,-0.2709 0.13943,-0.6174 0.38243,-0.7967 v 0 z m -4.92778,5.3062 c -0.0637,-0.5418 0.21113,-0.9999 0.54974,-1.4102 0.22309,-0.2709 0.63739,-0.247 0.78478,0.1036 0.15936,0.4183 0.18325,0.8007 -0.0199,1.223 -0.13144,0.2709 -0.35852,0.4501 -0.63339,0.5258 -0.20317,0.052 -0.37446,-0.052 -0.56967,-0.068 -0.16333,-0.01 -0.22706,-0.2191 -0.13942,-0.3386 0.008,-0.02 0.016,-0.024 0.0279,-0.036 z m -2.64117,0.5896 c 0.11548,-0.3346 0.18724,-0.5936 0.42626,-0.8525 0.21112,-0.2271 0.56169,-0.2271 0.69714,0.092 0.16333,0.3705 0.11954,0.729 -0.0557,1.0955 -0.17926,0.3625 -0.39836,0.7051 -0.75689,0.89237 -0.27885,0.15138 -0.56967,-0.14341 -0.54576,-0.43027 0.0279,-0.2828 0.1474,-0.5378 0.23503,-0.7967 z"
       id="path566"
       style="fill:#becc2d;fill-rule:evenodd;stroke-width:0.398366"
       inkscape:export-filename="/Users/sebastianrobledo/Downloads/tos_3_visualization.png"
       inkscape:export-xdpi="200"
       inkscape:export-ydpi="200" /></g><style
     id="style1">
text { font-family: Georgia, &quot;Times New Roman&quot;, serif; fill: #4A413B; }
.leaf-title { font-size: 52px; fill: #1F130B; font-weight: 600; }
.leaf-label { font-size: 13px; font-weight: 600; }
</style><style
     id="style1-8">
text { font-family: Georgia, &quot;Times New Roman&quot;, serif; fill: #4A413B; }
.fruit-title { font-size: 58px; fill: #1F130B; font-weight: 600; }
.fruit-label { font-size: 19px; font-weight: 600; }
.fruit-metric { font-size: 14px; opacity: 0.78; }
</style><style
     id="style1-9">
text { font-family: Georgia, &quot;Times New Roman&quot;, serif; fill: #4A413B; }
.cluster-title { font-size: 20px; font-weight: 600; letter-spacing: 0.5px; }
.node-label { font-size: 18px; }
</style><style
     id="style1-88">
text { font-family: Georgia, &quot;Times New Roman&quot;, serif; fill: #4A413B; }
.fruit-title { font-size: 58px; fill: #1F130B; font-weight: 600; }
.fruit-label { font-size: 19px; font-weight: 600; }
.fruit-metric { font-size: 14px; opacity: 0.78; }
</style><style
     id="style1-82">
text { font-family: Georgia, &quot;Times New Roman&quot;, serif; fill: #4A413B; }
.cluster-title { font-size: 20px; font-weight: 600; letter-spacing: 0.5px; }
.node-label { font-size: 18px; }
</style><style
     id="style1-6">
text { font-family: Georgia, &quot;Times New Roman&quot;, serif; fill: #4A413B; }
.node-label { font-size: 16px; font-weight: 600; }
</style><style
     id="style1-5">
text { font-family: Georgia, &quot;Times New Roman&quot;, serif; fill: #4A413B; }
.node-label { font-size: 16px; font-weight: 600; }
</style><style
     id="style1-0">
text { font-family: Georgia, &quot;Times New Roman&quot;, serif; fill: #4A413B; }
.overview-branch-title { font-size: 54px; fill: #1F130B; font-weight: 600; }
.overview-section-title { font-size: 48px; fill: #1F130B; font-weight: 600; }
.overview-node-label { font-size: 18px; font-weight: 600; }
.overview-empty { font-size: 18px; font-style: italic; opacity: 0.7; }
</style><style
     id="style1-00">
text { font-family: Georgia, &quot;Times New Roman&quot;, serif; fill: #4A413B; }
.leaf-title { font-size: 52px; fill: #1F130B; font-weight: 600; }
.leaf-label { font-size: 13px; font-weight: 600; }
</style></svg>
