<svg xmlns="http://www.w3.org/2000/svg" width="260" height="180" viewBox="0 0 260 180">
<rect width="260" height="180" fill="none" />
<g id="tos-leaf-symbol">
<g transform="translate(130.0 90.0) rotate(58.0) scale(2.7822 4.1837) translate(-10.5672 -16.3012)">
<g transform="translate(-148.10126,1029.4219)">
<path d="m 160.32463,-1020.443 c 0.0199,0.1434 0.0279,0.2868 0.0199,0.4342 0,0.3705 -0.10358,0.8485 -0.48999,0.9521 -0.1713,0.052 -0.30674,0.024 -0.43421,-0.1195 -0.24301,-0.2789 -0.13551,-0.6534 -0.0477,-0.984 -0.0239,0.084 0.016,-0.084 0.016,-0.076 0.008,-0.052 0.016,-0.1036 0.0239,-0.1514 0.008,-0.072 0.0279,-0.1354 0.0438,-0.2031 -0.016,0.068 0.008,-0.052 0.008,-0.06 0.0358,-0.4223 0.59357,-0.4501 0.74097,-0.1 0.008,0.01 0.0637,0.1275 0.016,0.052 0.0518,0.076 0.0915,0.1713 0.1075,0.2629 v 0 z m -2.45393,0.8325 c 0.1673,0.5259 0.38243,1.4342 -0.2191,1.7409 -0.13144,0.068 -0.3426,0.016 -0.41431,-0.1195 -0.0757,-0.1115 -0.0995,-0.2032 -0.0995,-0.3227 -0.016,-0.1713 0.0199,-0.3227 0.008,-0.47 -0.016,-0.1952 -0.0557,-0.3028 -0.11549,-0.4741 -0.0796,-0.247 0.008,-0.5179 0.24699,-0.6175 0.2191,-0.096 0.52185,0.016 0.59357,0.263 z m 5.60501,-6.2583 c -7.86773,5.7524 -20.53577,15.0105 -13.13812,27.97329 0.0995,-0.31471 0.17926,-0.63739 0.23503,-0.96803 0.2191,-1.20306 0.3665,-2.43796 0.66926,-3.62516 0.56169,-2.2507 1.85639,-4.0952 3.31839,-5.7922 0.0956,-0.3984 0.28285,-0.6613 0.51389,-1.0517 0.37447,-0.6294 0.6334,-1.3345 0.86047,-2.0317 0.37846,-1.1473 0.52187,-2.3623 0.96406,-3.4897 0.0797,-0.2031 0.34259,-0.1434 0.38243,0.052 0.23503,1.1951 0.12753,2.446 -0.17131,3.6252 0.83658,-0.9601 1.6612,-1.9441 2.44598,-2.9559 1.31063,-1.6891 2.85628,-3.5415 3.56139,-5.621 0.0358,-0.1035 0.1952,-0.084 0.20317,0.024 0.15536,1.9122 -0.82063,3.6013 -1.77274,5.1669 -1.19111,1.9639 -2.64515,3.8163 -4.12707,5.5293 -1.43412,1.6731 -2.87222,3.2945 -3.79244,5.2664 0.243,-0.239 0.486,-0.4781 0.73299,-0.6972 1.84443,-1.701 3.91992,-3.2466 5.8759,-4.8003 0.1952,-0.1633 0.41031,0.1 0.29081,0.2988 -1.13933,1.8086 -2.89612,3.0913 -4.44976,4.5015 -1.43013,1.2828 -2.48978,2.6571 -3.39805,4.2387 -0.13943,1.12335 -0.25098,2.36227 -0.62145,3.40599 20.76284,-3.35819 17.62371,-25.23649 15.95456,-32.60229 -1.13137,1.0716 -2.71686,2.2269 -4.53739,3.5574 v 0 z m -9.42933,11.5686 c 0.0479,0.1 0.0637,0.2191 0.0796,0.3306 0.008,0.06 0.0239,0.1195 0.0199,0.1793 -0.008,0.052 -0.0279,0.092 -0.0479,0.1354 0,0 -0.008,0.01 -0.008,0.016 -0.0399,0.1115 -0.13943,0.1513 -0.23503,0.1434 -0.13145,-0.01 -0.27487,-0.076 -0.31471,-0.2112 -0.0239,-0.08 -0.0557,-0.2231 -0.0717,-0.247 -0.11548,-0.1513 -0.0917,-0.3824 0.0557,-0.5019 0.1952,-0.1514 0.42227,-0.052 0.52983,0.1554 v 0 z m 9.85159,7.3578 c 0.16333,-0.1195 0.35057,-0.1195 0.50991,0 0.32667,0.2231 0.32667,0.7569 0.24301,1.1035 -0.10358,0.4182 -0.29081,0.7409 -0.57763,1.0357 -0.47008,0.5099 -1.19908,-0.044 -0.84455,-0.6653 0.12347,-0.2111 0.20318,-0.4501 0.28285,-0.6812 0.10359,-0.2709 0.13943,-0.6174 0.38243,-0.7967 v 0 z m -4.92778,5.3062 c -0.0637,-0.5418 0.21113,-0.9999 0.54974,-1.4102 0.22309,-0.2709 0.63739,-0.247 0.78478,0.1036 0.15936,0.4183 0.18325,0.8007 -0.0199,1.223 -0.13144,0.2709 -0.35852,0.4501 -0.63339,0.5258 -0.20317,0.052 -0.37446,-0.052 -0.56967,-0.068 -0.16333,-0.01 -0.22706,-0.2191 -0.13942,-0.3386 0.008,-0.02 0.016,-0.024 0.0279,-0.036 z m -2.64117,0.5896 c 0.11548,-0.3346 0.18724,-0.5936 0.42626,-0.8525 0.21112,-0.2271 0.56169,-0.2271 0.69714,0.092 0.16333,0.3705 0.11954,0.729 -0.0557,1.0955 -0.17926,0.3625 -0.39836,0.7051 -0.75689,0.89237 -0.27885,0.15138 -0.56967,-0.14341 -0.54576,-0.43027 0.0279,-0.2828 0.1474,-0.5378 0.23503,-0.7967 z" fill="#AFC42D" fill-rule="evenodd" stroke="none" />
</g>
</g>
</g>
</svg>