<?xml version="1.0" encoding="UTF-8" standalone="no"?>
<!-- Created with Inkscape (http://www.inkscape.org/) -->

<svg
   width="817.59015mm"
   height="469.54346mm"
   viewBox="0 0 817.59014 469.54346"
   version="1.1"
   id="svg5"
   inkscape:version="1.3.2 (091e20e, 2023-11-25, custom)"
   sodipodi:docname="tos_3_visualization_final_2.svg"
   xml:space="preserve"
   inkscape:export-filename="tos_3_visualization_final_2.jpg"
   inkscape:export-xdpi="96"
   inkscape:export-ydpi="96"
   xmlns:inkscape="http://www.inkscape.org/namespaces/inkscape"
   xmlns:sodipodi="http://sodipodi.sourceforge.net/DTD/sodipodi-0.dtd"
   xmlns="http://www.w3.org/2000/svg"
   xmlns:svg="http://www.w3.org/2000/svg"><sodipodi:namedview
     id="namedview7"
     pagecolor="#ffffff"
     bordercolor="#666666"
     borderopacity="1.0"
     inkscape:pageshadow="2"
     inkscape:pageopacity="0.0"
     inkscape:pagecheckerboard="0"
     inkscape:document-units="mm"
     showgrid="false"
     fit-margin-top="0"
     fit-margin-left="0"
     fit-margin-right="0"
     fit-margin-bottom="0"
     inkscape:zoom="0.09190555"
     inkscape:cx="5636.2211"
     inkscape:cy="-1082.6332"
     inkscape:window-width="1920"
     inkscape:window-height="1009"
     inkscape:window-x="-8"
     inkscape:window-y="-8"
     inkscape:window-maximized="1"
     inkscape:current-layer="layer1"
     inkscape:showpageshadow="2"
     inkscape:deskcolor="#d1d1d1"
     showguides="false" /><defs
     id="defs2"><style
       id="style457">
      .st0 {
        fill: #e52813;
      }

      .st0, .st1, .st2 {
        fill-rule: evenodd;
      }

      .st3 {
        fill: #f2f2f2;
      }

      .st1 {
        fill: #becc2d;
      }

      .st2 {
        fill: #7d932d;
      }

      .st4 {
        fill: url(#Degradado_sin_nombre_42);
      }
    </style><style
       id="style457-9">
      .st0 {
        fill: #e52813;
      }

      .st0, .st1, .st2 {
        fill-rule: evenodd;
      }

      .st3 {
        fill: #f2f2f2;
      }

      .st1 {
        fill: #becc2d;
      }

      .st2 {
        fill: #7d932d;
      }

      .st4 {
        fill: url(#Degradado_sin_nombre_42);
      }
    </style></defs><g
     inkscape:label="Layer 1"
     inkscape:groupmode="layer"
     id="layer1"
     transform="translate(-795.73602,1212.2733)"><path
       style="fill:#000000;stroke:#ffffff;stroke-width:0.285595"
       d="m 1195.2206,-879.61789 -10.0994,12.4299 -8.934,5.8266 -12.8184,7.7688 -14.7606,7.7686 -10.0994,11.6531 -14.3721,9.711 -6.9919,17.4796 -10.0993,12.0416 -5.4381,17.4796 c 0,0 -7.3803,8.934 -9.3225,8.1572 -1.9422,-0.7769 -29.9096,-3.496 -29.9096,-3.496 l -9.7109,7.3804 -20.5872,16.3143 -14.7606,3.8843 -6.215,-12.4299 -26.80209,12.4299 -28.35586,2.3307 4.66123,-20.1987 -24.85994,-6.9919 c 0,0 -19.0334,-0.7769 -27.57901,-2.7191 -8.5456,-1.9421 -44.28177,-8.5456 -44.28177,-8.5456 l -32.62867,-15.149 -27.96744,-15.149 -7.38029,-27.1905 33.79399,-12.8186 6.60342,-19.4218 28.35586,-10.4877 1.16532,-16.3143 -19.0334,-8.1572 -5.43811,-27.9675 25.24838,-6.9918 c 0,0 21.75245,-14.3722 27.579,-15.1491 5.82655,-0.7769 20.19871,-1.1652 20.19871,-4.2728 0,-3.1075 3.10749,-37.2898 3.10749,-37.2898 l 5.04968,-15.53751 9.32247,-37.29 4.66124,-30.6864 5.04967,-27.579 0.77688,-36.1247 22.14088,1.1654 34.57086,6.6033 38.8437,1.5538 8.934,-2.3305 -2.3306,-40.7859 30.298,4.2727 15.1491,2.7191 c 0,0 20.5871,-10.4877 20.9755,-12.0416 0.3885,-1.5537 6.6035,-9.7108 6.6035,-9.7108 l 30.6865,5.4381 c 0,0 26.4136,7.7686 26.8021,2.719 0.3884,-5.0497 9.7109,-26.8021 9.7109,-26.8021 l 34.9593,3.8844 c 0,0 0.3884,6.9918 12.0415,6.2149 11.6531,-0.7768 33.0172,-0.7768 35.7362,2.3307 2.7191,3.1074 13.2069,16.3143 15.5375,17.0912 2.3306,0.7768 31.8518,20.5872 31.8518,20.5872 l 5.4381,15.5374 27.9674,-20.9755 22.5294,-13.2069 34.9593,-12.43 -3.8844,43.5049 12.43,16.3143 20.1987,-12.4299 31.0749,-4.6613 24.0831,23.3062 6.9918,30.2981 -6.215,45.8355 c 0,0 -6.9918,30.298 -7.7687,33.4055 -0.7768,3.1076 -1.5537,29.52121 -5.4381,32.62881 -3.8844,3.1074 -9.3225,24.8599 -9.3225,24.8599 l -15.5374,22.5293 26.4136,-4.6613 34.9593,-5.4381 42.728,-6.2149 33.4056,11.653 17.0912,34.1825 6.215,45.8355 -17.8681,32.6286 -20.1987,24.0831 -19.4218,-0.7768 -10.8762,30.298 -26.4137,10.8763 -29.5212,0.7768 -43.5049,9.3225 -3.1075,-28.7443 -14.7606,-24.8599 -27.1905,-1.5538 -17.8681,-22.5293 -12.43,-10.8762 -13.9837,14.7606 -18.645,7.7687 -14.7606,-18.645 v -14.7606 z"
       id="path144" /></g><style
     id="style1">
text { font-family: Georgia, &quot;Times New Roman&quot;, serif; fill: #4A413B; }
.leaf-title { font-size: 52px; fill: #1F130B; font-weight: 600; }
.leaf-label { font-size: 13px; font-weight: 600; }
</style><style
     id="style1-8">
text { font-family: Georgia, &quot;Times New Roman&quot;, serif; fill: #4A413B; }
.fruit-title { font-size: 58px; fill: #1F130B; font-weight: 600; }
.fruit-label { font-size: 19px; font-weight: 600; }
.fruit-metric { font-size: 14px; opacity: 0.78; }
</style><style
     id="style1-9">
text { font-family: Georgia, &quot;Times New Roman&quot;, serif; fill: #4A413B; }
.cluster-title { font-size: 20px; font-weight: 600; letter-spacing: 0.5px; }
.node-label { font-size: 18px; }
</style><style
     id="style1-88">
text { font-family: Georgia, &quot;Times New Roman&quot;, serif; fill: #4A413B; }
.fruit-title { font-size: 58px; fill: #1F130B; font-weight: 600; }
.fruit-label { font-size: 19px; font-weight: 600; }
.fruit-metric { font-size: 14px; opacity: 0.78; }
</style><style
     id="style1-82">
text { font-family: Georgia, &quot;Times New Roman&quot;, serif; fill: #4A413B; }
.cluster-title { font-size: 20px; font-weight: 600; letter-spacing: 0.5px; }
.node-label { font-size: 18px; }
</style><style
     id="style1-6">
text { font-family: Georgia, &quot;Times New Roman&quot;, serif; fill: #4A413B; }
.node-label { font-size: 16px; font-weight: 600; }
</style><style
     id="style1-5">
text { font-family: Georgia, &quot;Times New Roman&quot;, serif; fill: #4A413B; }
.node-label { font-size: 16px; font-weight: 600; }
</style><style
     id="style1-0">
text { font-family: Georgia, &quot;Times New Roman&quot;, serif; fill: #4A413B; }
.overview-branch-title { font-size: 54px; fill: #1F130B; font-weight: 600; }
.overview-section-title { font-size: 48px; fill: #1F130B; font-weight: 600; }
.overview-node-label { font-size: 18px; font-weight: 600; }
.overview-empty { font-size: 18px; font-style: italic; opacity: 0.7; }
</style><style
     id="style1-00">
text { font-family: Georgia, &quot;Times New Roman&quot;, serif; fill: #4A413B; }
.leaf-title { font-size: 52px; fill: #1F130B; font-weight: 600; }
.leaf-label { font-size: 13px; font-weight: 600; }
</style><style
     id="style1-7">
text { font-family: Georgia, &quot;Times New Roman&quot;, serif; fill: #4A413B; }
.leaf-title { font-size: 52px; fill: #1F130B; font-weight: 600; }
.leaf-label { font-size: 13px; font-weight: 600; }
</style><style
     id="style1-3">
text { font-family: Georgia, &quot;Times New Roman&quot;, serif; fill: #4A413B; }
.leaf-title { font-size: 52px; fill: #1F130B; font-weight: 600; }
.leaf-label { font-size: 13px; font-weight: 600; }
</style><style
     id="style1-2">
text { font-family: Georgia, &quot;Times New Roman&quot;, serif; fill: #4A413B; }
.leaf-title { font-size: 52px; fill: #1F130B; font-weight: 600; }
.leaf-label { font-size: 13px; font-weight: 600; }
</style><style
     id="style1-97">
text { font-family: Georgia, &quot;Times New Roman&quot;, serif; fill: #4A413B; }
.leaf-title { font-size: 52px; fill: #1F130B; font-weight: 600; }
.leaf-label { font-size: 13px; font-weight: 600; }
</style><style
     id="style1-8-7">
text { font-family: Georgia, &quot;Times New Roman&quot;, serif; fill: #4A413B; }
.fruit-title { font-size: 58px; fill: #1F130B; font-weight: 600; }
.fruit-label { font-size: 19px; font-weight: 600; }
.fruit-metric { font-size: 14px; opacity: 0.78; }
</style><style
     id="style1-9-0">
text { font-family: Georgia, &quot;Times New Roman&quot;, serif; fill: #4A413B; }
.cluster-title { font-size: 20px; font-weight: 600; letter-spacing: 0.5px; }
.node-label { font-size: 18px; }
</style><style
     id="style1-88-6">
text { font-family: Georgia, &quot;Times New Roman&quot;, serif; fill: #4A413B; }
.fruit-title { font-size: 58px; fill: #1F130B; font-weight: 600; }
.fruit-label { font-size: 19px; font-weight: 600; }
.fruit-metric { font-size: 14px; opacity: 0.78; }
</style><style
     id="style1-82-8">
text { font-family: Georgia, &quot;Times New Roman&quot;, serif; fill: #4A413B; }
.cluster-title { font-size: 20px; font-weight: 600; letter-spacing: 0.5px; }
.node-label { font-size: 18px; }
</style><style
     id="style1-6-5">
text { font-family: Georgia, &quot;Times New Roman&quot;, serif; fill: #4A413B; }
.node-label { font-size: 16px; font-weight: 600; }
</style><style
     id="style1-5-7">
text { font-family: Georgia, &quot;Times New Roman&quot;, serif; fill: #4A413B; }
.node-label { font-size: 16px; font-weight: 600; }
</style><style
     id="style1-0-2">
text { font-family: Georgia, &quot;Times New Roman&quot;, serif; fill: #4A413B; }
.overview-branch-title { font-size: 54px; fill: #1F130B; font-weight: 600; }
.overview-section-title { font-size: 48px; fill: #1F130B; font-weight: 600; }
.overview-node-label { font-size: 18px; font-weight: 600; }
.overview-empty { font-size: 18px; font-style: italic; opacity: 0.7; }
</style><style
     id="style1-00-9">
text { font-family: Georgia, &quot;Times New Roman&quot;, serif; fill: #4A413B; }
.leaf-title { font-size: 52px; fill: #1F130B; font-weight: 600; }
.leaf-label { font-size: 13px; font-weight: 600; }
</style><style
     id="style1-7-5">
text { font-family: Georgia, &quot;Times New Roman&quot;, serif; fill: #4A413B; }
.leaf-title { font-size: 52px; fill: #1F130B; font-weight: 600; }
.leaf-label { font-size: 13px; font-weight: 600; }
</style><style
     id="style1-3-8">
text { font-family: Georgia, &quot;Times New Roman&quot;, serif; fill: #4A413B; }
.leaf-title { font-size: 52px; fill: #1F130B; font-weight: 600; }
.leaf-label { font-size: 13px; font-weight: 600; }
</style></svg>
